<?xml version="1.0"?>
<svg width="640" height="480" xmlns="http://www.w3.org/2000/svg" xmlns:svg="http://www.w3.org/2000/svg">
 <!-- Created with SVG-edit - http://svg-edit.googlecode.com/ -->
 <g>
  <title>Layer 1</title>
  <path id="svg_3" d="m102,76c68,-31 75,-43 167,-41c92,2 162,15 183,53c21,38 17,143 -127,143c-144,0 -199,5 -220,-64c-21,-69 -3,-91 -3,-91z" stroke-width="5" stroke="#000000" fill="none"/>
  <path id="svg_4" d="m304.062439,148.500015c23.0625,-14.625 88.875031,-46.125 164.25,-39.9375c75.375,6.1875 133.875061,48.375 133.875061,80.4375c0,32.0625 -60.335693,208.962936 -57.17511,233.654312c3.160522,24.691376 -214.123505,-3.358032 -242.567963,-85.530884c-28.444427,-82.172852 1.618011,-188.623428 1.618011,-188.623428z" stroke-width="5" stroke="#000000" fill="none"/>
 </g>
</svg>