<?xml version="1.0" encoding="UTF-8" standalone="no"?>
<!-- Created with Inkscape (http://www.inkscape.org/) -->

<svg
   xmlns:dc="http://purl.org/dc/elements/1.1/"
   xmlns:cc="http://creativecommons.org/ns#"
   xmlns:rdf="http://www.w3.org/1999/02/22-rdf-syntax-ns#"
   xmlns:svg="http://www.w3.org/2000/svg"
   xmlns="http://www.w3.org/2000/svg"
   xmlns:sodipodi="http://sodipodi.sourceforge.net/DTD/sodipodi-0.dtd"
   xmlns:inkscape="http://www.inkscape.org/namespaces/inkscape"
   width="210mm"
   height="297mm"
   viewBox="0 0 744.09448819 1052.3622047"
   id="svg2"
   version="1.1"
   inkscape:version="0.91 r13725"
   sodipodi:docname="12.svg">
  <defs
     id="defs4" />
  <sodipodi:namedview
     id="base"
     pagecolor="#ffffff"
     bordercolor="#666666"
     borderopacity="1.0"
     inkscape:pageopacity="0.0"
     inkscape:pageshadow="2"
     inkscape:zoom="3.0214084"
     inkscape:cx="351.03245"
     inkscape:cy="949.6222"
     inkscape:document-units="px"
     inkscape:current-layer="layer1"
     showgrid="false"
     inkscape:window-width="1920"
     inkscape:window-height="1081"
     inkscape:window-x="4"
     inkscape:window-y="0"
     inkscape:window-maximized="0" />
  <metadata
     id="metadata7">
    <rdf:RDF>
      <cc:Work
         rdf:about="">
        <dc:format>image/svg+xml</dc:format>
        <dc:type
           rdf:resource="http://purl.org/dc/dcmitype/StillImage" />
        <dc:title></dc:title>
      </cc:Work>
    </rdf:RDF>
  </metadata>
  <g
     inkscape:label="Layer 1"
     inkscape:groupmode="layer"
     id="layer1">
    <path
       style="fill:none;fill-rule:evenodd;stroke:#000000;stroke-width:1px;stroke-linecap:butt;stroke-linejoin:miter;stroke-opacity:1"
       d="M 515.65357,195.14607 685.11097,35.617813 c 10.99821,-10.353787 35.08297,-6.61943 35.08297,-6.61943 0,0 9.32126,30.098287 -2.64777,41.702406 L 608.98752,175.94972 c 32.43878,14.62606 90.68619,-9.2672 91.34813,-59.57487 C 700.99759,66.067189 652.0818,43.879969 611.63529,56.138045 L 712.91257,169.99223 c 13.94219,15.67358 9.92915,36.40687 9.92915,36.40687 0,0 -20.43309,5.8221 -37.06881,-10.59109 L 518.30134,35.617813 c 0,0 -20.52023,-9.267202 -35.08298,3.309715 -14.56274,12.576916 -31.02819,46.886101 26.47772,69.504012 -0.40317,-26.910295 1.33215,-35.439212 -9.92914,-48.98378 -19.28247,-23.192085 -39.05464,-37.73075 -82.74288,-37.068807 -43.68823,0.661943 -91.34812,36.406864 -88.70035,87.376467 2.64777,50.96961 35.08298,93.33396 86.05259,93.33396 50.9696,0 68.18012,-19.85829 83.40481,-35.08297 15.22469,-15.22469 12.57691,-43.68824 12.57691,-43.68824 0,0 -27.8016,-1.98583 -39.05463,15.88663 -11.25303,17.87246 -11.00678,38.78745 -1.32389,49.64572 20.8744,23.40829 45.67407,5.29555 45.67407,5.29555 z"
       id="path3414"
       inkscape:connector-curvature="0"
       sodipodi:nodetypes="cscscscscccscssssscssc" />
    <path
       style="fill:none;fill-rule:evenodd;stroke:#000000;stroke-width:1px;stroke-linecap:butt;stroke-linejoin:miter;stroke-opacity:1"
       d="m 538.82157,124.98011 c 14.07509,0.8063 46.51646,5.29921 45.67407,42.36435 -0.66195,29.12549 -19.19635,41.04047 -34.42104,41.04047 -21.18217,0 -192.6254,-172.105174 -192.6254,-172.105174 0,0 -8.18449,-4.157851 -12.57692,-3.971658 -4.05292,0.171801 -11.25303,4.633601 -11.25303,4.633601 0,0 -126.94517,113.092241 -139.00802,137.684141 27.83523,17.45682 93.33396,-3.64069 92.01007,-57.92001 C 285.29742,62.426503 231.24144,38.463953 195.93512,62.095531 199.29198,77.44861 320.3804,192.4983 320.3804,192.4983 c 6.11564,6.17726 11.99714,9.60079 19.52731,9.59817 9.04241,-0.003 17.87246,-5.95748 17.87246,-5.95748 L 534.18797,38.265585 c 0,0 6.61943,-7.281373 21.18218,-7.281373 14.56274,0 31.11132,14.562745 31.11132,35.74492 0,21.182175 -11.15348,43.520408 -47.6599,43.026288 0.13667,-13.824331 25.15383,-80.757037 94.65785,-81.41898 69.50401,-0.661943 89.3623,47.659894 90.02424,84.06676 0.66194,36.40686 -17.09975,91.05807 -90.68619,93.33395 -64.20847,1.98584 -89.4248,-49.76551 -93.9959,-80.75704 z"
       id="path3467"
       inkscape:connector-curvature="0"
       sodipodi:nodetypes="csscsccscssccsscsssc" />
  </g>
</svg>
