<?xml version="1.0" encoding="UTF-8" standalone="no"?>
<!-- Created with Inkscape (http://www.inkscape.org/) -->

<svg
   xmlns:dc="http://purl.org/dc/elements/1.1/"
   xmlns:cc="http://creativecommons.org/ns#"
   xmlns:rdf="http://www.w3.org/1999/02/22-rdf-syntax-ns#"
   xmlns:svg="http://www.w3.org/2000/svg"
   xmlns="http://www.w3.org/2000/svg"
   xmlns:sodipodi="http://sodipodi.sourceforge.net/DTD/sodipodi-0.dtd"
   xmlns:inkscape="http://www.inkscape.org/namespaces/inkscape"
   width="350mm"
   height="60mm"
   viewBox="0 0 1240.1577 212.59843"
   id="svg2"
   version="1.1"
   inkscape:version="0.91 r13725"
   sodipodi:docname="13.svg"
   style="shape-rendering:crispEdges"
   shape-rendering="crispEdges">
  <defs
     id="defs4" />
  <sodipodi:namedview
     id="base"
     pagecolor="#ffffff"
     bordercolor="#666666"
     borderopacity="1.0"
     inkscape:pageopacity="0.04313725"
     inkscape:pageshadow="2"
     inkscape:zoom="2.1364584"
     inkscape:cx="406.48369"
     inkscape:cy="35.518292"
     inkscape:document-units="px"
     inkscape:current-layer="layer1"
     showgrid="false"
     inkscape:window-width="1920"
     inkscape:window-height="1081"
     inkscape:window-x="1"
     inkscape:window-y="11"
     inkscape:window-maximized="0"
     showborder="true"
     borderlayer="true" />
  <metadata
     id="metadata7">
    <rdf:RDF>
      <cc:Work
         rdf:about="">
        <dc:format>image/svg+xml</dc:format>
        <dc:type
           rdf:resource="http://purl.org/dc/dcmitype/StillImage" />
        <dc:title></dc:title>
      </cc:Work>
    </rdf:RDF>
  </metadata>
  <g
     inkscape:label="Layer 1"
     inkscape:groupmode="layer"
     id="layer1"
     transform="translate(0,-839.76396)">
    <path
       style="fill:none;fill-rule:evenodd;stroke:#000000;stroke-width:1px;stroke-linecap:butt;stroke-linejoin:miter;stroke-opacity:1"
       d="m 1026.6874,1023.2838 169.4574,-159.52826 c 10.9982,-10.35379 35.083,-6.61943 35.083,-6.61943 0,0 9.3212,30.09829 -2.6478,41.70241 l -108.5587,105.24898 c 32.4388,14.626 90.6862,-9.26724 91.3482,-59.57492 0.6619,-50.30766 -48.2539,-72.49488 -88.7004,-60.23681 l 101.2773,113.85419 c 13.9422,15.67364 9.9291,36.40694 9.9291,36.40694 0,0 -20.4331,5.8221 -37.0688,-10.5911 L 1029.3352,863.75554 c 0,0 -20.5203,-9.2672 -35.08302,3.30972 -14.56277,12.57691 -31.02822,46.8861 26.47772,69.50401 -0.4032,-26.9103 1.3321,-35.43921 -9.9291,-48.98378 -19.28254,-23.19209 -39.05471,-37.73075 -82.74295,-37.06881 -43.68823,0.66194 -91.34812,36.40687 -88.70035,87.37647 2.64777,50.96961 35.08298,93.33395 86.05259,93.33395 50.9696,0 68.18009,-19.8582 83.40481,-35.08294 15.2247,-15.22471 12.5769,-43.68826 12.5769,-43.68826 0,0 -27.80162,-1.98583 -39.05462,15.88663 -11.25303,17.87246 -11.00678,38.78747 -1.32389,49.64577 20.87441,23.4083 45.67411,5.2955 45.67411,5.2955 z"
       id="path3414"
       inkscape:connector-curvature="0"
       sodipodi:nodetypes="cscscscscccscssssscssc" />
    <path
       style="fill:none;fill-rule:evenodd;stroke:#000000;stroke-width:1px;stroke-linecap:butt;stroke-linejoin:miter;stroke-opacity:1"
       d="m 1044.2386,934.72358 c 14.0751,-0.8063 46.5165,-5.29921 45.6741,-42.36436 -0.662,-29.12549 -19.1964,-41.04047 -34.421,-41.04047 -21.1822,0 -192.62547,172.10525 -192.62547,172.10525 0,0 -8.18449,4.1578 -12.57692,3.9716 -4.05292,-0.1718 -11.25303,-4.6336 -11.25303,-4.6336 0,0 -126.94517,-113.09226 -139.00802,-137.68416 27.83523,-17.45682 93.33396,3.64069 92.01007,57.92002 -1.32388,54.2793 -55.37986,78.24194 -90.68618,54.6103 3.35686,-15.35308 124.44528,-130.40278 124.44528,-130.40278 6.11564,-6.17726 11.99714,-9.60079 19.52731,-9.59817 9.04241,0.003 17.87246,5.95748 17.87246,5.95748 l 176.4078,157.87341 c 0,0 6.6195,7.2814 21.1822,7.2814 14.5627,0 31.1113,-14.5627 31.1113,-35.74494 0,-21.18218 -11.1535,-43.52041 -47.6599,-43.02629 0.1367,13.82433 25.1539,80.75703 94.6579,81.41903 69.504,0.6619 89.3623,-47.65994 90.0242,-84.06681 0.662,-36.40687 -17.0997,-91.05808 -90.6862,-93.33396 -64.2084,-1.98584 -89.4248,49.76551 -93.9959,80.75705 z"
       id="path3467"
       inkscape:connector-curvature="0"
       sodipodi:nodetypes="csscsccscssccsscsssc" />
    <path
       sodipodi:nodetypes="csscsccscssccsscsssc"
       inkscape:connector-curvature="0"
       id="use3652"
       d="m 606.5505,950.30952 c -14.0751,0.8063 -46.5165,5.29921 -45.6741,42.36436 0.662,29.12552 19.1964,41.04052 34.421,41.04052 21.1822,0 192.62547,-172.1053 192.62547,-172.1053 0,0 8.18449,-4.1578 12.57692,-3.9716 4.05292,0.1718 11.25303,4.6336 11.25303,4.6336 0,0 126.94517,113.09226 139.00802,137.68416 -27.83523,17.45684 -93.33396,-3.64069 -92.01007,-57.92002 1.32388,-54.2793 55.37986,-78.24194 90.68618,-54.6103 -3.35686,15.35308 -124.44528,130.40276 -124.44528,130.40276 -6.11564,6.1773 -11.99714,9.6008 -19.52731,9.5982 -9.04241,-0 -17.87246,-5.9575 -17.87246,-5.9575 L 611.1841,863.595 c 0,0 -6.6195,-7.2814 -21.1822,-7.2814 -14.5627,0 -31.1113,14.5627 -31.1113,35.74494 0,21.18218 11.1535,43.52041 47.6599,43.02629 -0.1367,-13.82433 -25.1539,-80.75703 -94.6579,-81.41903 -69.504,-0.6619 -89.3623,47.65994 -90.0242,84.06681 -0.662,36.40687 17.0997,91.05809 90.6862,93.33399 64.2084,1.9858 89.4248,-49.76554 93.9959,-80.75708 z"
       style="fill:none;fill-rule:evenodd;stroke:#000000;stroke-width:1px;stroke-linecap:butt;stroke-linejoin:miter;stroke-opacity:1" />
    <path
       sodipodi:nodetypes="csscsccscssccsscsssc"
       inkscape:connector-curvature="0"
       id="use3654"
       d="m 633.74616,938.46809 c 14.0751,-0.8063 46.5165,-5.29921 45.6741,-42.36436 -0.662,-29.12549 -19.1964,-41.04047 -34.421,-41.04047 -21.1822,0 -192.62547,172.10524 -192.62547,172.10524 0,0 -8.18449,4.1578 -12.57692,3.9716 -4.05292,-0.1718 -11.25303,-4.6336 -11.25303,-4.6336 0,0 -126.94517,-113.09225 -139.00802,-137.68415 27.83523,-17.45682 93.33396,3.64069 92.01007,57.92002 -1.32388,54.27933 -55.37986,78.24193 -90.68618,54.61033 3.35686,-15.35311 124.44528,-130.40281 124.44528,-130.40281 6.11564,-6.17726 11.99714,-9.60079 19.52731,-9.59817 9.04241,0.003 17.87246,5.95748 17.87246,5.95748 l 176.4078,157.8734 c 0,0 6.6195,7.2814 21.1822,7.2814 14.5627,0 31.1113,-14.5627 31.1113,-35.74493 0,-21.18218 -11.1535,-43.52041 -47.6599,-43.02629 0.1367,13.82433 25.1539,80.75702 94.6579,81.41902 69.504,0.6619 89.3623,-47.65993 90.0242,-84.0668 0.662,-36.40687 -17.0997,-91.05808 -90.6862,-93.33396 -64.2084,-1.98584 -89.4248,49.76551 -93.9959,80.75705 z"
       style="fill:none;fill-rule:evenodd;stroke:#000000;stroke-width:1px;stroke-linecap:butt;stroke-linejoin:miter;stroke-opacity:1" />
    <path
       sodipodi:nodetypes="cscscscscccscssssscssc"
       inkscape:connector-curvature="0"
       id="use3656"
       d="M 220.1841,1025.1561 50.7267,865.62779 c -10.9982,-10.35379 -35.083,-6.61943 -35.083,-6.61943 0,0 -9.3212,30.09829 2.6478,41.70241 L 126.8502,1005.9598 C 94.4114,1020.5858 36.164,996.69251 35.502,946.38483 34.8401,896.07717 83.7559,873.88995 124.2024,886.14802 L 22.9251,1000.0022 c -13.9422,15.6737 -9.9291,36.407 -9.9291,36.407 0,0 20.4331,5.8221 37.0688,-10.5911 L 217.5363,865.62779 c 0,0 20.5203,-9.2672 35.08302,3.30972 14.56277,12.57691 31.02822,46.8861 -26.47772,69.50401 0.4032,-26.9103 -1.3321,-35.43921 9.9291,-48.98378 19.28254,-23.19209 39.05471,-37.73075 82.74295,-37.06881 43.68823,0.66194 91.34812,36.40687 88.70035,87.37647 -2.64777,50.96961 -35.08298,93.334 -86.05259,93.334 -50.9696,0 -68.18009,-19.8582 -83.40481,-35.08299 -15.2247,-15.22471 -12.5769,-43.68826 -12.5769,-43.68826 0,0 27.80162,-1.98583 39.05462,15.88663 11.25303,17.87246 11.00678,38.78752 1.32389,49.64582 -20.87441,23.4083 -45.67411,5.2955 -45.67411,5.2955 z"
       style="fill:none;fill-rule:evenodd;stroke:#000000;stroke-width:1px;stroke-linecap:butt;stroke-linejoin:miter;stroke-opacity:1" />
    <path
       style="fill:none;fill-rule:evenodd;stroke:#000000;stroke-width:1px;stroke-linecap:butt;stroke-linejoin:miter;stroke-opacity:1"
       d="m 191.37742,952.64984 c -14.0751,0.8063 -46.5165,5.29921 -45.6741,42.36436 0.662,29.1255 19.1964,41.0405 34.421,41.0405 21.1822,0 192.62547,-172.10528 192.62547,-172.10528 0,0 8.18449,-4.1578 12.57692,-3.9716 4.05292,0.1718 11.25303,4.6336 11.25303,4.6336 0,0 126.94517,113.09226 139.00802,137.68418 -27.83523,17.4568 -93.33396,-3.64071 -92.01007,-57.92004 1.32388,-54.2793 55.37986,-78.24194 90.68618,-54.6103 -3.35686,15.35308 -124.44528,130.40274 -124.44528,130.40274 -6.11564,6.1773 -11.99714,9.6008 -19.52731,9.5982 -9.04241,0 -17.87246,-5.9575 -17.87246,-5.9575 L 196.01102,865.93532 c 0,0 -6.6195,-7.2814 -21.1822,-7.2814 -14.5627,0 -31.1113,14.5627 -31.1113,35.74494 0,21.18218 11.1535,43.52041 47.6599,43.02629 -0.1367,-13.82433 -25.1539,-80.75703 -94.6579,-81.41903 -69.504,-0.6619 -89.3623,47.65994 -90.0242,84.06681 -0.662,36.40687 17.0997,91.05807 90.6862,93.33397 64.2084,1.9858 89.4248,-49.76552 93.9959,-80.75706 z"
       id="use3658"
       inkscape:connector-curvature="0"
       sodipodi:nodetypes="csscsccscssccsscsssc" />
  </g>
</svg>
