<?xml version="1.0" encoding="UTF-8" standalone="no"?>
<!-- Created with DrawBerry (http://raphaelbost.free.fr/) -->
<svg 
 	 width = "595.000000" 
 	 height = "1000.000000" 
xmlns:dc="http://purl.org/dc/elements/1.1/"
xmlns:cc="http://web.resource.org/cc/"
xmlns:rdf="http://www.w3.org/1999/02/22-rdf-syntax-ns#"
 xmlns:svg="http://www.w3.org/2000/svg"
 xmlns="http://www.w3.org/2000/svg" 
 xmlns:sodipodi="http://inkscape.sourceforge.net/DTD/sodipodi-0.dtd"
 xmlns:inkscape="http://www.inkscape.org/namespaces/inkscape"
 >
<g inkscape:label="Background" inkscape:groupmode="layer" id="Background">
<path  style="fill:none;stroke:#000000;stroke-width:1.000000px;stroke-opacity:1.000000;stroke-linecap:butt;stroke-linejoin:miter;" 
 d="M 95.398438,453.156250 C 94.007812,362.210938 135.460938,377.617188 135.460938,377.617188 C 135.460938,377.617188 178.484375,383.824219 188.941406,409.218750 C 199.398438,434.613281 188.554688,492.437500 153.519531,482.757812 C 118.484375,473.078125 95.304688,449.503906 109.109375,431.488281 C 122.914062,413.472656 229.750000,385.828125 219.332031,356.476562 C 208.914062,327.125000 202.359375,263.574219 168.062500,260.058594 C 133.765625,256.542969 108.230469,277.953125 111.316406,302.566406 C 114.402344,327.179688 140.792969,364.988281 165.019531,352.140625 C 189.246094,339.292969 200.480469,330.265625 184.035156,311.207031 C 167.589844,292.148438 113.453125,263.894531 114.843750,237.320312 C 116.234375,210.746094 118.097656,180.968750 137.765625,179.187500 C 157.433594,177.406250 211.261719,163.000000 211.261719,188.351562 C 211.261719,213.703125 197.066406,235.234375 184.257812,234.886719 C 171.449219,234.539062 146.140625,227.164062 146.140625,217.523438 C 146.140625,207.882812 222.332031,163.351562 217.554688,128.707031 C 212.777344,94.062500 170.492188,72.835938 152.824219,97.492188 C 135.156250,122.148438 114.273438,140.203125 140.667969,150.234375 C 167.062500,160.265625 230.269531,94.628906 263.828125,92.976562 C 297.386719,91.324219 330.253906,106.734375 323.390625,128.484375 C 316.527344,150.234375 271.605469,187.699219 255.324219,173.503906 C 239.042969,159.308594 250.972656,118.679688 263.046875,116.593750 C 275.121094,114.507812 309.675781,141.027344 314.234375,173.156250 C 318.792969,205.285156 335.378906,248.218750 297.261719,247.179688 C 259.144531,246.140625 255.015625,263.199219 249.460938,239.625000 C 243.906250,216.050781 273.382812,181.937500 289.316406,195.132812 C 305.250000,208.328125 317.019531,215.312500 302.472656,224.996094 C 287.925781,234.679688 245.519531,258.687500 247.253906,292.675781 C 248.988281,326.664062 249.425781,348.972656 257.589844,357.183594 C 265.753906,365.394531 326.140625,358.144531 329.265625,341.863281 C 332.390625,325.582031 337.125000,287.812500 314.984375,292.632812 C 292.843750,297.453125 275.519531,303.750000 276.519531,318.207031 C 277.519531,332.664062 331.570312,364.531250 334.695312,388.062500 C 337.820312,411.593750 330.527344,496.691406 293.453125,489.480469 C 256.378906,482.269531 245.613281,475.285156 242.835938,441.597656 C 240.058594,407.910156 241.527344,394.019531 276.867188,388.117188 C 312.207031,382.214844 308.816406,442.250000 308.816406,442.250000 C 308.816406,442.250000 206.929688,488.007812 206.929688,488.007812 C 206.929688,488.007812 96.789062,544.101562 95.398438,453.156250  z"  />
<path  style="fill:none;stroke:#000000;stroke-width:1.000000px;stroke-opacity:1.000000;stroke-linecap:butt;stroke-linejoin:miter;" 
 d="M 151.070312,310.242188 C 121.984375,349.054688 123.457031,335.804688 118.941406,360.292969 C 114.425781,384.781250 155.671875,472.292969 200.773438,471.988281 C 245.875000,471.683594 281.257812,369.792969 281.257812,369.792969 C 281.257812,369.792969 344.457031,274.500000 332.652344,255.707031 C 320.847656,236.914062 203.203125,225.718750 256.031250,170.320312 C 308.859375,114.921875 331.128906,96.562500 323.140625,80.238281 C 315.152344,63.914062 253.601562,19.812500 218.609375,59.359375 C 183.617188,98.906250 166.738281,91.960938 161.390625,126.562500 C 156.042969,161.164062 181.003906,186.597656 183.089844,213.171875 C 185.175781,239.746094 155.960938,263.136719 144.238281,290.667969 C 132.515625,318.199219 119.359375,358.261719 119.359375,358.261719 C 119.359375,358.261719 180.156250,271.429688 151.070312,310.242188  z"  />
</g>
</svg>
