<?xml version="1.0" encoding="UTF-8" standalone="no"?>
<!-- Created with DrawBerry (http://raphaelbost.free.fr/) -->
<svg 
 	 width = "595.000000" 
 	 height = "1000.000000" 
xmlns:dc="http://purl.org/dc/elements/1.1/"
xmlns:cc="http://web.resource.org/cc/"
xmlns:rdf="http://www.w3.org/1999/02/22-rdf-syntax-ns#"
 xmlns:svg="http://www.w3.org/2000/svg"
 xmlns="http://www.w3.org/2000/svg" 
 xmlns:sodipodi="http://inkscape.sourceforge.net/DTD/sodipodi-0.dtd"
 xmlns:inkscape="http://www.inkscape.org/namespaces/inkscape"
 >
<g inkscape:label="Background" inkscape:groupmode="layer" id="Background">
<path  style="fill:none;stroke:#000000;stroke-width:1.000000px;stroke-opacity:1.000000;stroke-linecap:butt;stroke-linejoin:miter;" 
 d="M 40.171875,281.007812 C 40.171875,281.007812 32.531250,215.023438 43.949219,199.437500 C 55.367188,183.851562 72.734375,159.152344 101.515625,151.597656 C 130.296875,144.042969 149.273438,140.007812 160.996094,127.371094 C 172.718750,114.734375 184.875000,95.238281 177.582031,76.308594 C 170.289062,57.378906 148.238281,34.210938 134.085938,35.250000 C 119.933594,36.289062 86.593750,53.875000 79.648438,69.933594 C 72.703125,85.992188 66.882812,96.148438 77.871094,101.968750 C 88.859375,107.789062 94.195312,114.429688 109.042969,109.261719 C 123.890625,104.093750 167.773438,43.140625 183.316406,38.277344 C 198.859375,33.414062 198.601562,25.472656 213.878906,39.015625 C 229.156250,52.558594 379.488281,190.519531 379.750000,209.316406 C 380.011719,228.113281 385.746094,252.503906 368.121094,265.964844 C 350.496094,279.425781 349.496094,285.675781 327.964844,279.425781 C 306.433594,273.175781 87.160156,48.527344 76.785156,45.402344 C 66.410156,42.277344 40.281250,38.804688 40.281250,38.804688 C 40.281250,38.804688 32.992188,56.296875 37.503906,75.921875 C 42.015625,95.546875 44.878906,119.250000 63.464844,133.972656 C 82.050781,148.695312 162.574219,181.812500 171.910156,200.050781 C 181.246094,218.289062 178.199219,241.847656 168.742188,255.835938 C 159.285156,269.824219 151.894531,283.675781 128.890625,282.589844 C 105.886719,281.503906 76.937500,241.832031 75.894531,229.886719 C 74.851562,217.941406 79.800781,210.343750 93.175781,210.343750 C 106.550781,210.343750 119.832031,220.968750 135.292969,237.386719 C 150.753906,253.804688 174.839844,279.425781 188.953125,280.117188 C 203.066406,280.808594 384.523438,112.378906 384.523438,97.835938 C 384.523438,83.292969 391.820312,72.179688 364.730469,53.121094 C 337.640625,34.062500 330.136719,36.144531 322.707031,38.535156 C 315.277344,40.925781 77.128906,276.558594 70.351562,278.601562 C 63.574219,280.644531 40.171875,281.007812 40.171875,281.007812  z"  />
<path  style="fill:none;stroke:#000000;stroke-width:1.000000px;stroke-opacity:1.000000;stroke-linecap:butt;stroke-linejoin:miter;" 
 d="M 551.082031,40.023438 C 551.082031,40.023438 542.234375,33.851562 527.121094,36.242188 C 512.007812,38.632812 283.929688,272.449219 273.984375,274.183594 C 264.039062,275.917969 251.625000,283.562500 234.648438,266.585938 C 217.671875,249.609375 205.523438,235.722656 209.339844,221.523438 C 213.156250,207.324219 361.707031,48.828125 375.863281,43.578125 C 390.019531,38.328125 400.871094,33.503906 413.203125,36.242188 C 425.535156,38.980469 473.460938,96.195312 487.226562,100.363281 C 500.992188,104.531250 516.882812,101.753906 517.882812,94.238281 C 518.882812,86.722656 507.953125,55.375000 494.394531,46.734375 C 480.835938,38.093750 455.488281,36.054688 448.277344,38.093750 C 441.066406,40.132812 409.937500,61.441406 412.632812,82.890625 C 415.328125,104.339844 421.703125,128.425781 446.582031,140.539062 C 471.460938,152.652344 519.375000,162.277344 535.222656,180.906250 C 551.070312,199.535156 553.937500,222.847656 554.976562,237.000000 C 556.015625,251.152344 554.015625,277.808594 554.015625,277.808594 C 554.015625,277.808594 530.968750,279.765625 518.550781,271.210938 C 506.132812,262.656250 301.507812,53.414062 284.003906,46.816406 C 266.500000,40.218750 250.261719,38.441406 239.191406,43.996094 C 228.121094,49.550781 200.992188,77.378906 209.937500,98.867188 C 218.882812,120.355469 375.894531,275.156250 389.964844,276.156250 C 404.035156,277.156250 409.636719,279.277344 424.914062,267.167969 C 440.191406,255.058594 477.781250,204.269531 493.367188,203.269531 C 508.953125,202.269531 511.125000,198.105469 518.332031,204.703125 C 525.539062,211.300781 526.929688,234.343750 521.066406,242.164062 C 515.203125,249.984375 496.718750,280.238281 479.089844,281.156250 C 461.460938,282.074219 438.539062,273.003906 427.816406,251.945312 C 417.093750,230.886719 412.878906,217.605469 422.953125,203.492188 C 433.027344,189.378906 532.730469,149.441406 543.679688,118.660156 C 554.628906,87.878906 551.082031,40.023438 551.082031,40.023438  z"  />
</g>
</svg>
